<?xml version="1.0" standalone="no"?>
<!DOCTYPE svg PUBLIC "-//W3C//DTD SVG 20010904//EN"
 "http://www.w3.org/TR/2001/REC-SVG-20010904/DTD/svg10.dtd">
<svg version="1.0" xmlns="http://www.w3.org/2000/svg"
 width="512.000000pt" height="512.000000pt" viewBox="0 0 512.000000 512.000000"
 preserveAspectRatio="xMidYMid meet">
<metadata>
Created by potrace 1.11, written by Peter Selinger 2001-2013
</metadata>
<g transform="translate(0.000000,512.000000) scale(0.100000,-0.100000)"
fill="#000000" stroke="none">
<path d="M2309 4206 c-2 -2 -26 -6 -54 -10 -178 -21 -367 -94 -533 -208 -193
-133 -382 -381 -448 -588 -9 -30 -20 -58 -23 -61 -3 -4 -51 -9 -106 -13 -55
-3 -111 -8 -125 -10 -149 -31 -144 -30 -238 -66 -108 -42 -181 -81 -274 -147
-178 -128 -328 -314 -406 -503 -13 -30 -27 -64 -32 -75 -11 -24 -45 -153 -56
-210 -15 -85 -12 -303 6 -403 91 -497 457 -871 960 -979 80 -17 172 -18 1580
-18 1650 0 1547 -4 1740 62 200 68 424 222 541 373 74 95 107 148 155 245 86
178 123 342 119 538 -3 153 -10 208 -46 329 -112 377 -417 693 -779 805 -163
51 -179 54 -355 58 -129 3 -165 0 -316 -30 -36 -7 -37 -6 -43 30 -22 116 -129
322 -233 448 -172 209 -444 371 -693 412 -25 4 -54 9 -65 12 -26 6 -270 14
-276 9z m202 -170 c293 -19 584 -188 757 -439 55 -80 132 -232 132 -262 0 -9
4 -24 9 -34 6 -9 19 -64 31 -121 11 -57 21 -105 23 -106 1 -2 41 10 88 26 336
113 654 74 946 -116 79 -52 229 -204 284 -289 41 -65 99 -175 99 -190 0 -4 6
-21 14 -38 16 -35 41 -137 52 -207 21 -143 -6 -371 -60 -506 -39 -98 -48 -116
-102 -199 -170 -261 -437 -429 -749 -471 -71 -10 -2824 -11 -2920 -1 -75 7
-230 40 -264 56 -189 88 -303 163 -392 257 -132 141 -222 307 -264 489 -26
110 -35 273 -20 376 22 152 79 302 162 431 124 189 293 321 538 419 106 42
349 65 476 45 24 -3 27 0 38 48 49 202 134 366 263 504 173 187 426 311 668
329 47 3 87 7 88 9 2 1 9 1 15 -1 7 -2 46 -6 88 -9z"/>
<path d="M2430 3182 c-59 -8 -189 -42 -232 -61 l-47 -20 46 -98 c25 -54 47
-100 48 -102 2 -1 32 6 67 17 174 57 312 48 475 -29 212 -101 343 -319 338
-561 -2 -127 -51 -265 -127 -361 -35 -44 -39 -42 -76 37 l-27 57 -58 -171
c-32 -95 -57 -173 -55 -175 4 -4 328 -115 335 -115 2 0 -8 22 -22 50 -14 27
-25 53 -25 58 0 4 23 33 52 63 60 63 129 166 163 244 91 204 91 466 0 670
-113 256 -359 446 -634 490 -50 8 -184 12 -221 7z"/>
<path d="M1750 2917 l28 -52 -58 -63 c-101 -109 -167 -224 -203 -357 -25 -93
-28 -113 -28 -222 -1 -346 218 -662 542 -783 179 -66 407 -66 583 1 83 31 82
25 31 131 -25 52 -47 97 -50 100 -3 3 -36 -6 -73 -20 -59 -23 -82 -26 -197
-26 -116 0 -137 2 -197 26 -194 74 -319 202 -383 393 -49 144 -35 319 36 458
29 58 86 137 99 137 3 0 19 -27 35 -60 18 -38 32 -56 36 -48 22 40 110 321
103 327 -9 9 -309 111 -324 111 -5 0 4 -24 20 -53z"/>
</g>
</svg>
